<svg width="211" height="200" fill="none" xmlns="http://www.w3.org/2000/svg">
  <path d="M51.5 85c5.2-1.6 10.5.6667 12.5 2 3.7226 1.6 8.2178.6667 10 0 11.5-4.8333 35.9-15.1 41.5-17.5 5.6-2.4 14-1 17.5 0 4.667 1.1667 16.1 3.7 24.5 4.5 8.4.8 10.5 4 10.5 5.5 1.6 11.6-35.667 31.833-54.5 40.5L69 135.5c-5.3333 0-16.6-1.9-19-9.5-2.4-7.6-4-23.5-4.5-30.5-.1667-2.8333.8-8.9 6-10.5ZM35.5001 60.5c-4-12.8 1.4999-26.5 10-31C63 22.5 70.0001 41 73 48c4.9286 11.5-1.0233 27.3016-11.5 28-7.5.5-20.9999.5-25.9999-15.5ZM136.5 27C142.978 15.2581 156 5.3729 169 10c29.5 10.5 16.979 39.7253 13.5 46.5C173 75 155.36 69.3534 147 63c-12.5-9.5-18.5-21.5-10.5-36ZM81 21.5c6.4783-11.742 25.538-25.8785 37.5-19 20 11.5 5.479 46.2252 2 53-5.905 11.5-21.6403 14.3534-30 8C78 54 73 35.9999 81 21.5Z" fill="#C7FFF1"/>
  <path fill-rule="evenodd" clip-rule="evenodd" d="M86.9032 18.9609c-1.8065.4597-3.6234 1.1935-5.0034 2.915-1.4026 1.7498-2.6051 4.8407-2.4011 10.5527C79.9737 45.7266 86.9154 49.5 90.5 49.5c2.2971 0 4.2873-.445 5.6943-1.9945 1.4421-1.5881 2.6966-4.8014 2.3092-11.388-.3815-6.4848-2.2774-11.0415-4.5889-13.8109-2.2892-2.7427-4.8926-3.6677-7.0114-3.3457Zm10.0823.7826c2.9884 3.5805 5.0925 9.0238 5.5115 16.1391.412 7.0133-.833 11.55-3.3414 14.3119C96.6127 52.995 93.2028 53.5 90.5 53.5c-6.4154 0-14.4736-6.2265-14.9987-20.9286-.2246-6.288 1.073-10.4471 3.2775-13.1973 2.2063-2.7524 5.0695-3.7727 7.2361-4.3144l.0775-.0193.0788-.0132c3.868-.6446 7.8303 1.1412 10.8143 4.7163Zm37.9225 3.3053c-1.284-1.555-2.991-2.0073-5.579-1.576-1.597.2661-3.938 1.6309-5.985 4.3331-2.005 2.6465-3.616 6.4457-3.846 11.2892C119.019 47.1529 123.737 51 127 51c1.985 0 4.91-.8989 7.242-3.2949 2.276-2.3393 4.134-6.2622 3.761-12.5877-.395-6.7156-1.622-10.2858-3.095-12.0686Zm3.084-2.5476c2.327 2.8172 3.6 7.497 4.005 14.3814.427 7.2744-1.715 12.3516-4.889 15.6123C133.99 53.6989 130.015 55 127 55c-6.737 0-12.019-7.1529-11.498-18.0951.269-5.6446 2.158-10.2205 4.654-13.5144 2.453-3.2383 5.612-5.3794 8.515-5.8633 3.412-.5687 6.805-.071 9.321 2.974ZM55.9433 47.3854c-.6564.7282-1.5843 2.3961-1.5436 4.8438.0407 2.4431 1.0536 5.8412 4.6139 9.9636 3.5827 4.1484 6.6612 5.5465 8.8831 5.8085 2.2268.2625 3.852-.5784 4.6891-1.4155.8517-.8517 1.8587-2.1536 1.9453-4.2598.0888-2.162-.7761-5.5662-4.622-10.6139-5.6039-7.355-11.6178-6.631-13.9658-4.3267Zm-2.8575-2.7996c4.673-4.673 13.5113-3.8209 20.005 4.7021 4.1542 5.4523 5.5784 9.759 5.4369 13.2024-.1439 3.4992-1.8869 5.6973-3.1135 6.9239-1.6629 1.6629-4.4878 2.972-7.9859 2.5596-3.5032-.4131-7.4247-2.5149-11.442-7.1665-4.0397-4.6776-5.5267-8.9463-5.586-12.5115-.0587-3.5278 1.2877-6.1981 2.6301-7.6523l.0271-.0294.0283-.0283Zm99.2622 1.9071c-2.395.7027-5.248 2.4932-7.769 5.735-3.431 4.411-5.724 9.5487-3.293 14.372.423.8395 1.689 2.227 3.826 2.2596 2.186.0334 5.97-1.3288 11.397-7.6611 1.218-1.4205 2.442-4.0316 2.768-6.8568.323-2.7923-.255-5.4825-2.195-7.4307-.631-.6341-2.235-1.1511-4.734-.418Zm-1.126-3.8382c3.196-.9377 6.596-.6746 8.696 1.4344 3.06 3.0751 3.746 7.1349 3.333 10.7118-.41 3.544-1.922 6.9212-3.705 9.0007-5.715 6.6677-10.534 9.1179-14.495 9.0574-4.011-.0612-6.437-2.6737-7.337-4.4589-3.569-7.0819.138-14.039 3.707-18.628 2.97-3.8183 6.502-6.1495 9.801-7.1174Zm-40.736 15.0511c-5.917-.8258-12.6674.0742-18.7483 4.8652C78.9348 72.6582 69.8174 87.859 65.326 96.3256c-4.4629 11.8354-1.9539 19.4024 2.207 24.2104 4.3218 4.994 10.7171 7.34 14.3248 7.996 2.2042.401 4.9051-.187 7.8495-1.23 1.4421-.51 2.8626-1.099 4.2452-1.673l.0389-.016c1.3424-.557 2.6809-1.112 3.8761-1.51 2.6165-.873 6.7025-1.133 10.6115-.756 3.867.372 8.114 1.418 10.787 3.605.755.618 1.894 1.099 3.389 1.404 1.477.302 3.166.405 4.891.369 3.465-.071 6.819-.695 8.405-1.148 5.235-1.496 14.549-8.764 14.549-22.577 0-6.7215-4.194-14.981-9.874-22.8827-5.596-7.7849-12.352-14.8435-16.949-19.1161-2.294-1.9075-7.243-4.4652-13.191-5.2954Zm.553-3.9616c6.677.932 12.358 3.8009 15.246 6.2234l.039.0325.037.0343c4.736 4.3978 11.708 11.6716 17.513 19.7483C149.611 87.7644 154.5 96.9216 154.5 105c0 15.787-10.686 24.49-17.451 26.423-1.915.547-5.61 1.223-9.42 1.302-1.913.039-3.917-.07-5.775-.45-1.839-.376-3.675-1.045-5.12-2.227-1.727-1.413-4.98-2.367-8.638-2.72-3.616-.348-7.08-.058-8.9636.569-1.0432.348-2.2529.849-3.6474 1.427l-.0285.012c-1.36.564-2.8668 1.189-4.4138 1.737-3.0556 1.082-6.6047 1.994-9.9004 1.395-4.1705-.759-11.5252-3.412-16.6339-9.314-5.2561-6.074-7.8553-15.266-2.878-28.3644l.044-.1158.058-.1096c4.5295-8.5557 13.9886-24.4663 27.5298-35.1352 7.1191-5.609 15.0348-6.6257 21.7768-5.6848Z" fill="#FC7071"/>
  <path d="M26.968 184.768c-1.152 0-2-.288-2.544-.864-.544-.608-1.008-1.504-1.392-2.688-.384-1.216-1.136-4.448-2.256-9.696-.736.64-1.936.992-3.6 1.056l-8.208.288c-1.952 4.768-3.392 9.008-4.32 12.72-3.072-1.088-4.608-2.32-4.608-3.696 0-.608.928-2.88 2.784-6.816 1.856-3.936 3.952-8.4 6.288-13.392 2.368-5.024 3.968-8.672 4.8-10.944l.864-2.352c-.256-.448-.88-1.264-1.872-2.448 1.152-.384 2.144-.576 2.976-.576.864 0 1.568.064 2.112.192.576.128 1.072.352 1.488.672.448.288.832.592 1.152.912.352.32.672.8.96 1.44.288.608.528 1.168.72 1.68.192.48.4 1.168.624 2.064.256.896.448 1.68.576 2.352.16.64.352 1.552.576 2.736.256 1.152.512 2.272.768 3.36s.704 3.168 1.344 6.24c.64 3.04 1.136 5.328 1.488 6.864.384 1.504.912 3.2 1.584 5.088.704 1.888 1.44 3.376 2.208 4.464-1.856.896-3.36 1.344-4.512 1.344Zm-9.984-30c-.448 1.024-1.44 3.216-2.976 6.576-1.504 3.328-2.672 5.984-3.504 7.968h9.84c-1.504-6.912-2.624-11.76-3.36-14.544Zm23.7855 19.536c0 3.808 1.152 5.712 3.456 5.712 1.216 0 2.4-.656 3.552-1.968 1.152-1.312 2.08-3.072 2.784-5.28.736-2.208 1.36-4.56 1.872-7.056.544-2.528.944-5.2 1.2-8.016.448-5.44.672-9.68.672-12.72 0-3.072-.128-5.376-.384-6.912 2.304.512 3.92 1.6 4.848 3.264.928 1.664 1.392 3.76 1.392 6.288 0 2.528-.544 7.232-1.632 14.112-1.056 6.88-1.584 11.904-1.584 15.072 0 3.168.144 5.856.432 8.064-2.272-.608-3.84-1.696-4.704-3.264-.832-1.6-1.248-3.6-1.248-6-.992 2.752-2.48 4.928-4.464 6.528-1.984 1.6-4.032 2.4-6.144 2.4s-3.84-.8-5.184-2.4c-1.312-1.632-1.968-4.016-1.968-7.152 0-4.96 1.36-9.216 4.08-12.768 2.72-3.584 5.936-5.376 9.648-5.376 1.056 0 2.72.256 4.992.768-1.984.512-3.76 1.408-5.328 2.688-1.536 1.248-2.736 2.688-3.6 4.32-1.792 3.232-2.688 6.464-2.688 9.696Zm38.0741-14.352c-2.08 0-3.936 1.408-5.568 4.224-1.632 2.784-2.448 5.568-2.448 8.352 0 5.824 1.504 8.736 4.512 8.736 2.144 0 3.888-1.392 5.232-4.176 1.344-2.816 2.016-5.968 2.016-9.456 0-5.12-1.248-7.68-3.744-7.68Zm-4.08-4.32c.352 0 .672.112.96.336.32.192.48.4.48.624-3.232 2.24-5.168 5.36-5.808 9.36.672-1.792 1.488-3.344 2.448-4.656.992-1.312 2.016-2.304 3.072-2.976 2.016-1.248 3.984-1.872 5.904-1.872s3.552.944 4.896 2.832c1.344 1.888 2.016 4.416 2.016 7.584 0 3.552-.72 6.816-2.16 9.792-1.6 3.36-3.872 5.68-6.816 6.96-1.664.736-3.488 1.104-5.472 1.104-2.784 0-5.216-1.072-7.296-3.216-2.048-2.176-3.072-5.28-3.072-9.312 0-4.064.992-7.632 2.976-10.704 1.984-3.104 4.608-5.056 7.872-5.856Zm27.1774 10.56c1.344-2.752 3.024-4.896 5.04-6.432 2.048-1.536 4.064-2.304 6.048-2.304s3.616.8 4.896 2.4c1.312 1.568 1.968 3.856 1.968 6.864 0 4.8-1.312 8.88-3.936 12.24-2.624 3.36-5.776 5.04-9.456 5.04-1.312 0-2.64-.256-3.984-.768 3.136-.736 5.632-2.768 7.488-6.096 1.856-3.328 2.784-6.64 2.784-9.936 0-1.536-.288-2.784-.864-3.744-.544-.96-1.328-1.44-2.352-1.44-1.952 0-3.68 1.184-5.184 3.552-1.504 2.368-2.656 5.616-3.456 9.744-.8 4.096-1.2004 8.368-1.2004 12.816 0 4.48.3204 8.368.9604 11.664-2.6244-.096-4.5764-.528-5.8564-1.296-1.248-.736-1.872-2.16-1.872-4.272 0-.768.48-4.816 1.44-12.144.992-7.36 1.488-13.024 1.488-16.992 0-3.968-.24-7.312-.72-10.032 2.56.64 4.32 1.824 5.2804 3.552.992 1.728 1.488 4.256 1.488 7.584Zm33.62-4.752c-.16 1.152-.496 3.152-1.008 6-1.088 6.048-1.632 10.528-1.632 13.44 0 2.912.224 4.864.672 5.856-2.464-.64-4.16-1.616-5.088-2.928-.928-1.344-1.392-3.232-1.392-5.664 0-2.144.336-5.072 1.008-8.784.672-3.744 1.104-6.272 1.296-7.584-1.664.288-3.44.848-5.328 1.68-.064-.704-.096-1.232-.096-1.584 0-1.696.512-2.848 1.536-3.456 1.024-.64 2.496-.976 4.416-1.008.224-2.4.336-4.128.336-5.184s-.016-1.936-.048-2.64V148c2.112.224 3.648.864 4.608 1.92.96 1.024 1.44 2.496 1.44 4.416 0 .768-.08 1.84-.24 3.216 2.688-.064 4.656-.592 5.904-1.584.064.64.096 1.12.096 1.44 0 1.536-.272 2.608-.816 3.216-.544.576-1.456.864-2.736.864-1.28 0-2.256-.016-2.928-.048Zm28.451 13.536c-1.152.448-2.048.672-2.688.672-1.92 0-2.992-.272-3.216-.816-3.2-8.224-5.312-13.52-6.336-15.888-.096.864-.352 2.864-.768 6-.864 6.144-1.296 11.248-1.296 15.312 0 .992.064 2.32.192 3.984-2.24 0-3.76-.256-4.56-.768-.768-.544-1.152-1.296-1.152-2.256 0-.32.528-4.672 1.584-13.056 1.088-8.384 1.632-14.224 1.632-17.52v-.24c-.928-1.504-1.904-2.736-2.928-3.696 1.184-.832 2.608-1.248 4.272-1.248 2.112 0 3.744.992 4.896 2.976 1.152 1.952 3.408 7.344 6.768 16.176l2.208 5.664c.192-.32.48-.752.864-1.296 7.808-11.552 11.824-19.392 12.048-23.52 0 .032.384.08 1.152.144.768.032 1.584.192 2.448.48.896.256 1.536.672 1.92 1.248.416.544.672 1.088.768 1.632.096.512.144 1.408.144 2.688 0 1.248-.528 5.488-1.584 12.72s-1.584 12.304-1.584 15.216c0 2.88.224 4.848.672 5.904-2.72-.704-4.576-1.632-5.568-2.784-.992-1.184-1.488-2.816-1.488-4.896 0-1.216.32-4.208.96-8.976.672-4.768 1.136-8.576 1.392-11.424-1.28 2.208-3.104 5.232-5.472 9.072-2.336 3.84-3.744 6.128-4.224 6.864-.48.704-.832 1.248-1.056 1.632Zm35.269-2.784c-1.536 0-3.04-.176-4.512-.528-.032.32-.048.816-.048 1.488 0 2.656.496 4.656 1.488 6 .992 1.344 2.176 2.016 3.552 2.016s2.688-.416 3.936-1.248c1.248-.832 2.336-1.984 3.264-3.456 1.152.256 1.728.848 1.728 1.776-2.816 4.32-6.448 6.48-10.896 6.48-2.688 0-5.04-1.024-7.056-3.072-2.016-2.08-3.024-4.96-3.024-8.64 0-2.752.528-5.36 1.584-7.824 1.056-2.496 2.736-4.592 5.04-6.288 2.304-1.728 4.848-2.592 7.632-2.592 2.816 0 4.88.64 6.192 1.92 1.312 1.28 1.968 2.96 1.968 5.04 0 3.008-1.056 5.248-3.168 6.72-2.08 1.472-4.64 2.208-7.68 2.208Zm2.016-12.912c-1.632 0-3.008 1.008-4.128 3.024s-1.856 4.464-2.208 7.344h.72c2.784 0 4.832-.72 6.144-2.16 1.344-1.44 2.016-3.168 2.016-5.184 0-.832-.224-1.536-.672-2.112-.416-.608-1.04-.912-1.872-.912Z" fill="#FC7071"/>
</svg>